<svg version="1.1" id="gear" xmlns="http://www.w3.org/2000/svg" xmlns:xlink="http://www.w3.org/1999/xlink" x="0px" y="0px"
	 viewBox="0 0 34 34" style="enable-background:new 0 0 34 34;" xml:space="preserve">
<style type="text/css">.ge0{fill:#66A243;}</style>
<path class="ge0" d="M34,19.1v-4.5l-4.5-0.7c-0.3-1.3-0.8-2.4-1.5-3.5l2.5-3.8l-3.2-3.2L23.5,6c-1.1-0.6-2.3-1.1-3.5-1.4L19.1,0
	h-4.5l-0.7,4.6c-1.2,0.3-2.4,0.8-3.5,1.5L6.5,3.5L3.2,6.7L6,10.5c-0.7,1.1-1.1,2.3-1.5,3.5L0,14.9v4.5l4.5,0.7
	c0.3,1.3,0.8,2.5,1.5,3.6l-2.5,3.8l3.2,3.2l3.7-2.7c1.1,0.7,2.3,1.2,3.6,1.5l0.9,4.4h4.5l0.7-4.5c1.3-0.3,2.5-0.9,3.6-1.5l3.8,2.5
	l3.2-3.2l-2.7-3.7c0.7-1.1,1.1-2.3,1.4-3.6L34,19.1z M17,23.1c-3.3,0-6-2.7-6-6c0-3.3,2.7-6,6-6c3.3,0,6,2.7,6,6
	C23,20.4,20.3,23.1,17,23.1z"/>
</svg>
