<svg xmlns="http://www.w3.org/2000/svg" xmlns:xlink="http://www.w3.org/1999/xlink" viewBox="0 0 214.95 93.66"><defs><style>.cls-1{filter:url(#luminosity-noclip);}.cls-2{mask:url(#mask);}.cls-3{fill:url(#linear-gradient);}.cls-4{mask:url(#mask-2);}.cls-5{fill:#231f20;}.cls-6{fill:none;}.cls-7{fill:#fff;}.cls-8{filter:url(#luminosity-invert-noclip);}</style><filter id="luminosity-invert-noclip" x="-0.51" y="-8680.64" width="173.68" height="32766" filterUnits="userSpaceOnUse" color-interpolation-filters="sRGB"><feColorMatrix values="-1 0 0 0 1 0 -1 0 0 1 0 0 -1 0 1 0 0 0 1 0" result="invert"/><feFlood flood-color="#fff" result="bg"/><feBlend in="invert" in2="bg"/></filter><mask id="mask" x="-0.51" y="-8680.64" width="173.68" height="32766" maskUnits="userSpaceOnUse"><g class="cls-8"/></mask><linearGradient id="linear-gradient" x1="86.33" y1="94.24" x2="86.33" y2="56.76" gradientUnits="userSpaceOnUse"><stop offset="0"/><stop offset="0.09" stop-color="#040404"/><stop offset="0.18" stop-color="#101011"/><stop offset="0.27" stop-color="#242525"/><stop offset="0.36" stop-color="#404142"/><stop offset="0.45" stop-color="#646668"/><stop offset="0.55" stop-color="#909295"/><stop offset="0.55" stop-color="#939598"/><stop offset="0.56" stop-color="#989a9c"/><stop offset="0.65" stop-color="#bdbec0"/><stop offset="0.74" stop-color="#dadadb"/><stop offset="0.83" stop-color="#eeefef"/><stop offset="0.92" stop-color="#fbfbfb"/><stop offset="1" stop-color="#fff"/></linearGradient><filter id="luminosity-noclip" x="-0.51" y="-0.46" width="173.68" height="94.9" filterUnits="userSpaceOnUse" color-interpolation-filters="sRGB"><feFlood flood-color="#fff" result="bg"/><feBlend in="SourceGraphic" in2="bg"/></filter><mask id="mask-2" x="-0.51" y="-0.46" width="173.68" height="94.9" maskUnits="userSpaceOnUse"><g id="_Group_2" data-name="&lt;Group&gt;" class="cls-1"><g class="cls-2"><rect id="_Path_" data-name="&lt;Path&gt;" class="cls-3" x="-0.51" y="-0.46" width="173.68" height="94.9"/></g></g></mask></defs><title>Asset 5</title><g id="Layer_2" data-name="Layer 2"><g id="Layer_1-2" data-name="Layer 1"><g id="_Group_3" data-name="&lt;Group&gt;"><g class="cls-4"><rect id="_Path_2" data-name="&lt;Path&gt;" class="cls-5" y="0.05" width="172.91" height="93.61"/></g><g id="_Group_4" data-name="&lt;Group&gt;"><g id="_Group_5" data-name="&lt;Group&gt;"><g id="_Group_6" data-name="&lt;Group&gt;"><path id="_Compound_Path_" data-name="&lt;Compound Path&gt;" class="cls-6" d="M27.77.17A19.7,19.7,0,0,0,24.4,0H14.88V21.67h6.56V15.05h4.27a16.88,16.88,0,0,0,2.12-.18A6.8,6.8,0,0,0,30,14.19c3.78-1.82,3.81-6.65,3.81-6.65a7.09,7.09,0,0,0-6-7.37m-2.5,9.62H21.45V5.3h3.83a2.15,2.15,0,0,1,2.22,2.2,2.26,2.26,0,0,1-2.22,2.29"/><path id="_Compound_Path_2" data-name="&lt;Compound Path&gt;" class="cls-6" d="M214.78,42.4a19.63,19.63,0,0,0,.15-3.37V29.52H193.29v6.56h6.61v4.27a16.92,16.92,0,0,0,.18,2.13,6.85,6.85,0,0,0,.69,2.11c1.82,3.78,6.65,3.82,6.65,3.82a7.09,7.09,0,0,0,7.37-6m-9.62-2.5V36.08h4.49v3.83a2.15,2.15,0,0,1-2.2,2.22,2.26,2.26,0,0,1-2.3-2.22"/><g id="_Group_7" data-name="&lt;Group&gt;"><path id="_Path_3" data-name="&lt;Path&gt;" class="cls-7" d="M58.8,39.48A2.38,2.38,0,0,0,56.63,42v8.7H50.73V35.08H56.2l.15,1.69a7.68,7.68,0,0,1,5.25-2.2c3.21,0,5.5,2.64,5.52,6.26V50.7h-6.2V41.32s.06-1.84-2.14-1.84"/><path id="_Compound_Path_3" data-name="&lt;Compound Path&gt;" class="cls-7" d="M27.77,29.2A20,20,0,0,0,24.4,29H14.88V50.7h6.56V44.08h4.27a16.57,16.57,0,0,0,2.12-.18,6.72,6.72,0,0,0,2.12-.7c3.78-1.82,3.81-6.65,3.81-6.65a7.1,7.1,0,0,0-6-7.37m-2.5,9.62H21.45V34.33h3.83a2.16,2.16,0,0,1,2.22,2.2,2.26,2.26,0,0,1-2.22,2.29"/><path id="_Path_4" data-name="&lt;Path&gt;" class="cls-7" d="M84.64,45.51c0,6.18,8,5.66,8,5.66,8.16,0,7.71-5.58,7.71-5.58,0-3-2.7-4.19-4.31-4.6s-3.05-.69-4.27-.9-1.18-.91-1.18-.91c0-1,1.69-1.1,1.69-1.1,2.18,0,2,1.54,2,1.54h5.42c0-5.39-7.47-4.88-7.47-4.88s-7.51-.23-7.51,5.13c0,4.14,5.36,4.66,5.36,4.66,1.31.17,3.25.59,3.25.59,1.16.36,1,1.22,1,1.22,0,1.3-1.75,1.32-1.75,1.32-2.79,0-2.54-2.16-2.54-2.16H84.64"/><path id="_Compound_Path_4" data-name="&lt;Compound Path&gt;" class="cls-7" d="M49.27,45.73V40.59c0-6.13-7.5-5.88-7.5-5.88-9,0-7.6,5.74-7.6,5.74l5.21.1a2,2,0,0,1,2.2-2.06c2,0,1.95,1.37,1.95,1.37a1.13,1.13,0,0,1-.68,1c-.71.25-3.08.68-3.08.68l-1.21.23c-3.5.71-5.18,2.32-5.18,4.73s1.73,4.58,5.16,4.58a6.25,6.25,0,0,0,4.93-2c.19,1.26.59,1.53.59,1.53h6c-.83-.4-.75-5-.75-5M40.67,47.6c-1.07,0-1.81-.44-1.81-1.43s1.46-1.29,1.46-1.29a18.12,18.12,0,0,0,3.25-1.1c.65,3.9-2.89,3.83-2.89,3.83"/><path id="_Compound_Path_5" data-name="&lt;Compound Path&gt;" class="cls-7" d="M83.69,45.73V40.59c0-6.13-7.5-5.88-7.5-5.88-9,0-7.61,5.74-7.61,5.74l5.22.1A2,2,0,0,1,76,38.5c2,0,1.94,1.37,1.94,1.37a1.14,1.14,0,0,1-.69,1c-.7.25-3.07.68-3.07.68L73,41.83c-3.5.71-5.18,2.32-5.18,4.73s1.73,4.58,5.16,4.58a6.23,6.23,0,0,0,4.93-2c.18,1.26.59,1.53.59,1.53h6c-.83-.4-.75-5-.75-5m-8.6,1.87c-1.08,0-1.82-.44-1.82-1.43s1.46-1.29,1.46-1.29A18.27,18.27,0,0,0,78,43.77c.64,3.9-2.89,3.83-2.89,3.83"/><path id="_Compound_Path_6" data-name="&lt;Compound Path&gt;" class="cls-7" d="M114.94,36.58c-.36-.28-.78-.54-1.19-.79a11.05,11.05,0,0,0-4.33-1.06H109a10.47,10.47,0,0,0-2.91.5,8.73,8.73,0,0,0-1.44.56,10.76,10.76,0,0,0-1.19.79,8.22,8.22,0,0,0-2.86,6.19v.42a8.21,8.21,0,0,0,2.86,6.12,11.47,11.47,0,0,0,1.19.79,9.7,9.7,0,0,0,1.44.56,11,11,0,0,0,2.91.5h.39a10.76,10.76,0,0,0,2.88-.49,10.62,10.62,0,0,0,1.45-.56c.4-.26.83-.51,1.19-.8a8.26,8.26,0,0,0,2.86-6.14v-.39a8.27,8.27,0,0,0-2.86-6.19m-3.13,6.63c0,3.43-1.6,4-2.3,4.13a1.94,1.94,0,0,1-.57,0c-.64-.07-2.28-.57-2.37-4v-.49c.07-3.48,1.73-4,2.37-4a1.8,1.8,0,0,1,.57,0c.69.09,2.26.7,2.3,4.14v.24"/><path id="_Path_5" data-name="&lt;Path&gt;" class="cls-7" d="M126.67,39.48A2.38,2.38,0,0,0,124.51,42v8.7H118.6V35.08h5.47l.16,1.69a7.7,7.7,0,0,1,5.25-2.2c3.2,0,5.5,2.64,5.53,6.26V50.7h-6.2V41.32s.06-1.84-2.14-1.84"/><rect id="_Path_6" data-name="&lt;Path&gt;" class="cls-7" x="136.09" y="35.07" width="5.8" height="15.63"/><rect id="_Path_7" data-name="&lt;Path&gt;" class="cls-7" x="136.09" y="29.04" width="5.8" height="3.88"/><path id="_Path_8" data-name="&lt;Path&gt;" class="cls-7" d="M158.37,41h-5A2.13,2.13,0,0,0,151.17,39s-2.77-.23-2.77,3.93,2.88,3.94,2.88,3.94,2.28.15,2.28-2.71h5.35v.25c0,1.24-.65,6.69-8,6.69a7.94,7.94,0,0,1-7.53-4.75,11.36,11.36,0,0,1-.66-3.71c0-2,.75-7.26,8-7.92h.44c7.37.16,7.52,6.21,7.52,6.21h-.34"/></g></g></g></g><rect id="_Path_9" data-name="&lt;Path&gt;" class="cls-6" x="0.07" y="14.46" width="14.41" height="14.41"/><rect id="_Path_10" data-name="&lt;Path&gt;" class="cls-6" x="0.07" y="28.88" width="14.41" height="14.41"/><rect id="_Path_11" data-name="&lt;Path&gt;" class="cls-6" x="0.07" y="43.3" width="14.41" height="14.41"/><rect id="_Path_12" data-name="&lt;Path&gt;" class="cls-6" x="0.07" y="57.71" width="14.41" height="14.41"/><rect id="_Path_13" data-name="&lt;Path&gt;" class="cls-6" x="0.07" y="72.13" width="14.41" height="14.41"/><rect id="_Path_14" data-name="&lt;Path&gt;" class="cls-6" x="0.07" y="86.54" width="14.41" height="7.1"/><rect id="_Path_15" data-name="&lt;Path&gt;" class="cls-6" x="0.07" y="0.1" width="14.41" height="14.41"/><rect id="_Path_16" data-name="&lt;Path&gt;" class="cls-6" x="158.7" y="28.4" width="14.41" height="14.41"/></g></g></g></svg>